<svg id="svg" version="1.1" xmlns="http://www.w3.org/2000/svg" xmlns:xlink="http://www.w3.org/1999/xlink" width="400" height="444.44444444444446" viewBox="0, 0, 400,444.44444444444446"><g id="svgg"><path id="path0" d="M199.200 1.146 C 199.200 1.776,198.840 2.750,198.400 3.309 C 197.960 3.869,197.587 4.568,197.571 4.863 C 197.476 6.598,195.371 8.583,190.510 11.522 C 189.672 12.029,188.539 13.103,187.993 13.909 C 186.241 16.496,184.652 18.103,182.459 19.506 C 181.282 20.260,180.022 21.418,179.659 22.079 C 178.649 23.923,176.193 26.561,174.303 27.834 C 172.396 29.118,170.400 31.127,170.400 31.761 C 170.400 32.402,165.828 36.607,164.540 37.152 C 163.913 37.417,162.780 38.545,162.022 39.658 C 160.331 42.141,158.627 44.000,158.040 44.000 C 157.798 44.000,157.600 44.135,157.599 44.300 C 157.599 44.465,156.793 45.140,155.808 45.800 C 154.823 46.460,153.722 47.630,153.361 48.400 C 153.000 49.170,151.151 51.337,149.252 53.217 C 147.354 55.096,144.798 57.706,143.574 59.017 C 142.350 60.327,140.460 62.217,139.374 63.216 C 138.288 64.215,136.566 65.925,135.546 67.016 C 134.527 68.107,132.547 70.115,131.146 71.478 C 129.746 72.841,128.050 74.551,127.378 75.278 C 126.707 76.005,125.192 77.410,124.012 78.400 C 120.985 80.941,120.885 81.056,119.739 83.344 C 119.172 84.475,118.441 85.704,118.114 86.076 C 117.665 86.586,117.520 87.830,117.520 91.168 L 117.520 95.585 120.095 98.092 C 121.511 99.472,123.419 101.228,124.335 101.997 C 125.251 102.765,126.000 103.586,126.000 103.821 C 126.000 104.380,126.971 105.393,129.623 107.600 C 132.612 110.087,134.800 112.339,134.800 112.928 C 134.800 113.443,134.951 113.587,138.212 116.183 C 141.184 118.550,142.990 120.458,143.532 121.803 C 143.807 122.486,144.792 123.497,145.808 124.140 C 146.794 124.763,147.600 125.437,147.600 125.637 C 147.600 125.837,147.786 126.000,148.013 126.000 C 148.449 126.000,151.200 128.602,151.200 129.013 C 151.200 129.447,153.383 132.188,154.200 132.780 C 155.725 133.885,160.071 138.198,160.666 139.196 C 160.995 139.748,162.189 140.830,163.320 141.600 C 165.862 143.331,168.017 145.510,169.482 147.830 C 170.097 148.804,171.148 149.862,171.818 150.180 C 173.262 150.867,175.212 152.713,177.360 155.429 C 179.088 157.612,181.182 159.573,181.804 159.589 C 182.026 159.595,182.702 160.185,183.306 160.900 C 183.910 161.615,184.863 162.740,185.422 163.400 C 185.982 164.060,186.725 165.071,187.074 165.646 C 187.423 166.221,188.269 167.021,188.954 167.423 C 191.150 168.714,193.095 171.050,193.337 172.688 C 193.460 173.519,193.766 175.460,194.018 177.000 C 194.323 178.873,194.451 186.159,194.403 199.000 C 193.969 315.726,194.233 433.099,194.936 435.200 C 195.340 436.410,195.861 438.975,196.093 440.900 L 196.514 444.400 202.401 444.400 L 208.289 444.400 208.518 442.467 C 208.770 440.339,210.131 435.856,210.906 434.600 C 211.478 433.674,212.043 218.215,211.486 213.600 C 211.313 212.170,210.997 210.190,210.783 209.200 C 210.175 206.391,210.195 195.311,210.812 193.200 C 211.158 192.014,211.310 189.451,211.258 185.692 C 211.180 180.089,211.202 179.929,212.436 177.092 C 215.929 169.061,217.184 167.254,222.300 162.876 C 222.795 162.453,223.200 161.978,223.200 161.821 C 223.200 161.434,227.857 156.800,228.245 156.800 C 228.415 156.800,229.915 155.386,231.577 153.657 C 233.240 151.928,235.230 150.192,236.000 149.800 C 237.477 149.046,238.461 148.115,240.223 145.806 C 241.998 143.478,244.208 141.440,245.757 140.701 C 246.561 140.318,247.381 139.598,247.581 139.102 C 247.780 138.606,248.406 137.677,248.972 137.038 C 249.537 136.399,250.000 135.746,250.000 135.588 C 250.000 135.045,252.601 132.539,254.104 131.635 C 254.934 131.135,256.090 129.896,256.686 128.865 C 258.026 126.550,261.028 123.534,262.670 122.854 C 263.352 122.572,264.236 121.728,264.644 120.971 C 265.050 120.217,265.521 119.600,265.691 119.600 C 265.861 119.600,266.000 119.393,266.000 119.140 C 266.000 118.888,266.612 118.123,267.361 117.440 C 269.392 115.589,269.803 115.290,271.613 114.347 C 272.525 113.871,273.479 113.014,273.733 112.441 C 273.987 111.869,274.334 111.220,274.505 111.000 C 275.594 109.596,276.386 108.822,277.800 107.782 C 278.680 107.134,279.490 106.500,279.600 106.372 C 279.710 106.244,280.350 105.820,281.022 105.430 C 281.694 105.039,282.680 103.883,283.213 102.860 C 283.747 101.837,285.402 99.776,286.891 98.281 C 288.381 96.785,289.600 95.288,289.600 94.955 C 289.600 94.621,289.806 93.962,290.059 93.490 C 290.563 92.549,290.599 87.473,290.108 86.627 C 289.939 86.335,289.080 85.288,288.200 84.300 C 286.009 81.842,284.904 80.463,283.709 78.700 C 283.150 77.874,282.132 76.851,281.447 76.425 C 280.761 75.999,278.426 73.839,276.259 71.625 C 274.091 69.411,272.093 67.600,271.818 67.600 C 271.307 67.600,269.141 65.374,266.063 61.683 C 265.107 60.537,264.164 59.600,263.967 59.600 C 263.256 59.600,259.600 56.174,259.600 55.507 C 259.600 55.334,259.038 54.609,258.351 53.896 C 257.664 53.183,256.838 52.202,256.515 51.716 C 256.193 51.229,255.540 50.710,255.064 50.562 C 254.018 50.235,252.575 48.779,250.926 46.385 C 250.249 45.403,248.369 43.311,246.748 41.735 C 245.127 40.160,242.639 37.683,241.220 36.232 C 239.801 34.781,238.091 33.210,237.420 32.742 C 236.749 32.274,235.523 31.016,234.696 29.948 C 233.868 28.879,232.492 27.563,231.638 27.024 C 229.351 25.580,226.227 22.588,225.396 21.045 C 224.996 20.303,224.148 19.387,223.511 19.011 C 222.078 18.165,217.158 13.362,216.317 11.988 C 215.976 11.431,214.957 10.621,214.053 10.188 C 213.149 9.755,212.407 9.265,212.405 9.100 C 212.402 8.935,212.175 8.797,211.900 8.794 C 211.189 8.785,208.802 6.602,208.787 5.947 C 208.780 5.646,208.510 5.051,208.187 4.624 C 207.860 4.191,207.600 2.996,207.600 1.924 L 207.600 0.000 203.400 0.000 L 199.200 0.000 199.200 1.146 M312.000 112.437 C 311.230 112.887,310.150 113.856,309.600 114.589 C 309.050 115.322,307.555 116.687,306.277 117.623 C 305.000 118.559,303.200 120.204,302.277 121.279 C 300.200 123.700,298.214 125.766,296.169 127.631 C 294.153 129.470,292.400 131.505,292.400 132.007 C 292.400 132.223,292.265 132.403,292.100 132.407 C 291.619 132.419,287.112 136.857,285.807 138.603 C 283.836 141.240,283.077 142.032,281.400 143.199 C 280.520 143.812,278.177 145.908,276.194 147.857 C 274.211 149.805,271.871 152.057,270.994 152.861 C 270.117 153.664,268.590 155.231,267.600 156.343 C 266.610 157.455,265.604 158.373,265.363 158.383 C 264.929 158.400,261.469 161.958,258.800 165.133 C 258.030 166.049,257.071 166.905,256.670 167.036 C 255.664 167.363,253.673 169.371,251.715 172.034 C 250.160 174.149,249.037 175.225,246.584 176.949 C 245.998 177.361,244.811 178.794,243.946 180.132 C 242.211 182.816,241.752 183.306,239.301 185.081 C 236.551 187.073,235.009 188.551,233.704 190.449 C 233.024 191.437,231.689 192.949,230.737 193.809 C 226.889 197.285,226.431 205.617,229.965 207.846 C 231.504 208.817,235.396 212.893,236.590 214.783 C 237.164 215.694,237.941 216.550,238.317 216.686 C 240.057 217.319,242.403 219.350,243.833 221.460 C 245.840 224.425,247.212 226.000,247.788 226.000 C 248.271 226.000,251.200 228.536,251.200 228.954 C 251.200 229.089,251.515 229.533,251.900 229.940 C 253.029 231.134,254.000 232.390,254.000 232.658 C 254.000 233.031,256.139 234.798,256.600 234.806 C 257.092 234.814,259.409 236.832,259.635 237.448 C 259.887 238.133,264.659 243.200,265.053 243.200 C 265.486 243.201,267.600 244.996,267.600 245.363 C 267.600 245.974,270.493 248.825,274.295 251.962 C 275.673 253.099,276.903 254.470,277.042 255.023 C 277.185 255.597,278.083 256.569,279.138 257.295 C 282.739 259.772,286.000 262.904,286.000 263.883 C 286.000 264.527,286.719 265.284,289.227 267.280 C 291.765 269.299,294.000 271.587,294.000 272.165 C 294.000 272.771,295.057 273.902,296.833 275.197 C 298.152 276.159,300.965 278.898,301.810 280.044 C 302.036 280.350,302.462 281.410,302.757 282.400 C 303.051 283.390,303.441 284.650,303.622 285.200 C 304.384 287.512,304.454 293.457,304.525 361.811 L 304.600 433.400 305.668 435.509 C 306.894 437.928,308.400 442.381,308.400 443.584 C 308.400 444.369,308.627 444.400,314.400 444.400 L 320.400 444.400 320.400 443.256 C 320.400 442.627,320.823 441.489,321.339 440.728 C 323.894 436.962,323.796 440.145,323.842 360.000 C 323.888 279.532,323.650 286.769,326.445 280.908 C 327.351 279.008,328.081 278.115,329.517 277.150 C 331.895 275.551,334.000 273.587,334.000 272.965 C 334.000 272.146,337.634 268.399,339.206 267.597 C 340.593 266.889,343.200 263.646,343.200 262.628 C 343.200 262.233,343.789 261.665,346.761 259.198 C 347.290 258.759,347.930 258.400,348.183 258.400 C 348.726 258.400,351.197 255.933,351.206 255.381 C 351.217 254.730,354.103 251.795,356.200 250.302 C 358.235 248.853,360.400 246.675,360.400 246.076 C 360.400 245.739,365.094 241.200,365.444 241.200 C 365.727 241.200,367.196 239.641,368.869 237.564 C 369.677 236.561,371.156 235.124,372.157 234.371 C 373.157 233.617,373.981 232.805,373.988 232.568 C 373.994 232.330,374.410 231.916,374.911 231.648 C 375.412 231.379,376.357 230.372,377.011 229.410 C 377.665 228.447,378.653 227.391,379.206 227.063 C 380.603 226.234,381.961 224.911,383.583 222.800 C 384.343 221.810,385.378 220.570,385.883 220.045 C 386.387 219.520,386.800 218.956,386.800 218.791 C 386.800 218.626,387.422 218.196,388.183 217.835 C 389.818 217.059,391.645 215.339,393.699 212.640 C 395.462 210.324,397.557 208.800,398.979 208.800 L 400.000 208.800 400.000 201.000 L 400.000 193.200 398.983 193.200 C 398.424 193.200,397.689 192.975,397.351 192.700 C 395.815 191.451,393.999 189.489,393.988 189.066 C 393.981 188.810,393.216 188.024,392.288 187.320 C 391.359 186.617,390.060 185.627,389.400 185.120 C 387.843 183.926,384.800 180.782,384.800 180.367 C 384.800 180.077,383.924 179.201,379.171 174.741 C 378.385 174.004,377.314 172.770,376.791 172.000 C 376.268 171.230,375.643 170.477,375.401 170.326 C 373.168 168.929,369.429 165.164,366.808 161.673 C 366.694 161.520,365.931 160.897,365.113 160.287 C 362.986 158.702,360.233 155.918,359.403 154.513 C 359.012 153.851,358.131 152.978,357.446 152.574 C 355.977 151.709,350.848 146.680,349.822 145.100 C 349.429 144.495,348.936 144.000,348.726 144.000 C 347.743 144.000,344.651 141.339,343.247 139.283 C 341.271 136.391,340.157 135.173,338.400 133.985 C 337.630 133.464,336.874 132.854,336.721 132.629 C 335.574 130.948,333.200 128.099,332.229 127.238 C 331.585 126.667,329.065 124.200,326.629 121.756 C 324.193 119.312,321.639 116.992,320.954 116.602 C 320.269 116.211,319.407 115.381,319.038 114.757 C 318.420 113.711,317.806 113.330,314.681 112.056 C 313.333 111.506,313.675 111.458,312.000 112.437 M92.008 112.893 C 90.802 113.111,89.542 113.602,89.208 113.983 C 88.873 114.363,88.387 114.748,88.127 114.837 C 87.866 114.927,86.606 115.992,85.327 117.203 C 84.047 118.415,82.517 119.655,81.926 119.957 C 80.036 120.925,77.999 122.834,77.215 124.371 C 76.796 125.193,75.766 126.376,74.926 127.001 C 74.087 127.626,72.950 128.555,72.400 129.066 C 71.850 129.577,71.039 130.311,70.597 130.698 C 70.156 131.084,69.526 131.931,69.197 132.580 C 68.505 133.948,59.221 143.789,55.482 147.117 C 55.307 147.273,53.957 148.660,52.482 150.200 C 51.007 151.740,49.275 153.360,48.634 153.800 C 47.293 154.720,47.300 154.713,44.481 157.917 C 43.042 159.552,41.604 160.691,40.004 161.463 C 38.410 162.232,37.494 162.956,37.175 163.700 C 36.915 164.305,36.545 164.800,36.351 164.800 C 36.158 164.800,36.000 165.031,36.000 165.313 C 36.000 166.166,32.451 169.488,30.621 170.348 C 29.677 170.792,28.793 171.480,28.656 171.877 C 27.789 174.395,22.945 180.000,21.636 180.000 C 21.484 180.000,20.830 180.855,20.183 181.900 C 18.937 183.911,15.460 187.600,14.811 187.600 C 14.033 187.600,11.320 191.892,10.023 195.172 L 8.690 198.544 9.216 202.572 C 9.904 207.835,10.811 209.374,17.199 216.127 C 18.409 217.406,19.471 218.666,19.558 218.927 C 19.645 219.187,20.184 219.760,20.756 220.200 C 22.700 221.696,26.060 225.332,27.620 227.629 C 28.475 228.889,29.766 230.287,30.488 230.737 C 32.261 231.841,35.756 235.478,36.700 237.200 C 37.196 238.105,38.290 239.063,39.797 239.912 C 41.988 241.145,45.967 244.619,45.990 245.318 C 46.005 245.782,47.895 247.600,48.362 247.600 C 48.941 247.600,54.070 252.747,55.200 254.462 C 55.730 255.266,56.705 256.244,57.368 256.635 C 58.807 257.486,63.200 261.794,63.200 262.356 C 63.200 262.573,64.686 264.247,66.503 266.076 C 70.171 269.768,72.400 272.309,72.400 272.801 C 72.400 272.979,73.345 273.799,74.500 274.622 C 75.655 275.446,76.720 276.319,76.866 276.563 C 77.012 276.807,77.732 277.648,78.466 278.432 C 80.251 280.338,81.200 281.545,81.200 281.909 C 81.200 282.073,81.656 282.700,82.213 283.300 C 85.030 286.339,84.809 279.743,84.802 360.612 C 84.798 410.913,84.926 433.480,85.222 434.257 C 85.837 435.875,86.800 441.148,86.800 442.900 L 86.800 444.400 92.400 444.400 L 98.000 444.400 98.004 443.100 C 98.006 442.385,98.494 440.090,99.089 438.000 L 100.171 434.200 100.406 361.400 C 100.659 283.038,100.518 287.260,102.967 284.489 C 103.886 283.450,105.169 281.548,105.819 280.263 C 106.468 278.978,107.419 277.538,107.931 277.063 C 108.443 276.588,109.163 275.916,109.531 275.570 C 109.899 275.223,111.055 274.547,112.100 274.068 C 113.250 273.540,114.000 272.935,114.000 272.534 C 114.000 270.805,120.075 264.800,121.823 264.800 C 122.062 264.800,122.644 263.945,123.117 262.900 C 124.215 260.475,125.600 258.973,128.653 256.900 C 129.997 255.987,131.204 254.917,131.336 254.520 C 131.849 252.986,134.773 249.600,135.587 249.600 C 135.814 249.600,136.000 249.423,136.000 249.206 C 136.000 248.989,136.706 248.344,137.568 247.774 C 138.430 247.203,139.629 245.991,140.232 245.081 C 140.834 244.170,142.225 242.609,143.322 241.613 C 146.530 238.699,149.600 235.655,149.600 235.389 C 149.600 235.058,150.286 234.433,152.200 233.016 C 153.915 231.746,156.388 229.351,158.004 227.393 C 158.552 226.730,159.720 225.650,160.600 224.993 C 162.539 223.547,163.200 222.939,163.200 222.602 C 163.200 222.461,163.828 221.684,164.597 220.873 C 165.365 220.063,165.999 219.220,166.005 219.000 C 166.012 218.780,166.672 218.060,167.471 217.400 C 170.731 214.710,172.270 213.187,172.806 212.122 C 173.117 211.505,174.068 209.980,174.920 208.733 C 176.605 206.267,177.090 204.820,177.610 200.708 L 177.950 198.016 176.375 195.657 C 175.509 194.360,174.800 193.097,174.800 192.850 C 174.800 192.602,174.620 192.400,174.400 192.400 C 174.180 192.400,174.000 192.128,174.000 191.796 C 174.000 190.541,172.329 187.699,171.284 187.173 C 168.702 185.876,164.800 181.849,164.800 180.481 C 164.800 179.981,162.421 177.913,161.026 177.200 C 160.380 176.870,158.964 175.387,157.880 173.905 C 156.216 171.630,152.617 168.400,151.746 168.400 C 151.479 168.400,151.240 168.136,148.400 164.696 C 147.410 163.497,145.880 162.002,145.000 161.373 C 144.120 160.745,142.770 159.512,142.000 158.633 C 140.121 156.487,136.906 153.314,134.876 151.600 C 133.964 150.830,133.111 149.885,132.981 149.499 C 132.732 148.757,128.406 144.400,127.919 144.400 C 127.381 144.400,124.494 141.325,124.219 140.461 C 124.069 139.988,123.778 139.600,123.573 139.600 C 123.368 139.600,123.200 139.407,123.200 139.171 C 123.200 138.689,122.209 137.600,121.770 137.600 C 121.511 137.600,118.459 135.245,117.363 134.200 C 117.123 133.971,116.692 133.337,116.405 132.792 C 115.375 130.830,113.482 128.756,112.054 128.024 C 109.978 126.959,109.123 126.123,107.131 123.212 C 105.953 121.491,104.730 120.263,103.441 119.505 C 101.221 118.201,97.600 114.899,97.600 114.180 C 97.600 113.536,95.819 112.387,94.914 112.448 C 94.521 112.474,93.213 112.674,92.008 112.893 " stroke="none" fill="#fbf8f7" fill-rule="evenodd"></path><path id="path1" d="M40.800 1.247 C 40.800 2.156,40.391 2.903,39.291 4.003 C 38.461 4.833,37.549 5.947,37.265 6.479 C 36.980 7.011,36.084 7.771,35.273 8.168 C 34.463 8.564,33.487 9.049,33.105 9.244 C 32.723 9.440,32.166 9.600,31.868 9.600 C 29.000 9.600,21.585 14.362,19.244 17.707 C 18.592 18.638,17.595 19.887,17.029 20.483 C 16.463 21.078,16.000 21.738,16.000 21.949 C 16.000 22.160,15.854 22.393,15.675 22.467 C 15.401 22.579,13.506 24.971,11.246 28.059 C 10.941 28.475,10.551 30.117,10.379 31.708 C 10.207 33.298,9.864 36.040,9.617 37.800 C 9.370 39.560,8.990 42.440,8.772 44.200 C 8.521 46.222,8.404 72.068,8.453 114.400 C 8.507 161.206,8.401 181.822,8.101 182.800 C 7.645 184.286,7.081 189.418,7.486 188.400 C 8.045 186.994,10.935 183.600,11.574 183.600 C 12.122 183.600,16.000 179.580,16.000 179.011 C 16.000 178.388,18.226 176.058,21.158 173.616 C 22.071 172.854,23.364 171.265,24.030 170.085 C 24.696 168.905,25.771 167.638,26.418 167.270 C 27.065 166.901,27.596 166.465,27.597 166.300 C 27.599 166.135,27.869 166.000,28.199 166.000 C 28.873 166.000,32.394 162.441,32.398 161.756 C 32.402 161.010,34.922 158.603,36.285 158.043 C 37.679 157.471,39.336 156.008,40.600 154.234 C 41.040 153.617,41.625 152.874,41.900 152.584 C 42.175 152.294,42.402 151.909,42.405 151.729 C 42.411 151.344,45.009 149.600,45.576 149.600 C 46.189 149.600,47.843 147.788,49.622 145.168 C 50.523 143.841,51.697 142.557,52.230 142.314 C 52.764 142.070,53.200 141.754,53.200 141.610 C 53.200 141.467,53.813 141.109,54.563 140.814 C 55.313 140.520,56.138 139.815,56.396 139.248 C 57.356 137.142,59.671 134.439,61.936 132.781 C 63.367 131.733,64.626 130.400,65.192 129.333 C 66.444 126.972,68.201 125.199,71.081 123.388 C 71.785 122.946,73.066 121.493,73.927 120.161 C 75.015 118.478,76.089 117.393,77.446 116.604 C 78.521 115.980,79.490 115.344,79.600 115.190 C 79.710 115.037,80.385 114.612,81.100 114.246 C 81.815 113.879,82.400 113.401,82.400 113.182 C 82.400 107.937,96.518 105.370,101.016 109.797 C 101.465 110.239,102.275 111.400,102.816 112.378 C 103.520 113.650,104.347 114.438,105.720 115.143 C 108.358 116.497,110.031 118.196,111.333 120.842 C 112.404 123.018,112.867 123.420,115.400 124.369 C 116.795 124.892,119.168 127.397,120.800 130.067 C 121.463 131.152,122.498 132.199,123.270 132.567 C 124.668 133.231,126.800 134.912,126.800 135.350 C 126.800 135.492,127.355 136.188,128.033 136.897 C 128.710 137.606,129.558 138.682,129.915 139.287 C 130.272 139.892,131.138 140.659,131.838 140.991 C 132.904 141.497,136.169 144.815,139.424 148.700 C 139.838 149.195,140.408 149.600,140.689 149.600 C 140.970 149.600,141.200 149.780,141.200 150.000 C 141.200 150.220,141.393 150.400,141.629 150.400 C 142.182 150.400,143.200 151.418,143.200 151.971 C 143.200 152.207,143.380 152.400,143.600 152.400 C 143.820 152.400,144.000 152.631,144.000 152.912 C 144.000 153.194,145.305 154.547,146.900 155.918 C 150.975 159.422,151.950 160.427,152.623 161.818 C 152.948 162.487,153.775 163.367,154.462 163.773 C 155.149 164.179,156.007 164.801,156.368 165.155 C 156.730 165.510,157.678 166.291,158.475 166.891 C 159.272 167.492,160.340 168.662,160.849 169.491 C 161.990 171.351,162.611 171.999,164.400 173.192 C 166.945 174.889,168.744 176.891,169.584 178.960 C 170.304 180.735,170.760 181.211,173.066 182.601 C 175.508 184.073,175.825 184.427,177.055 187.064 C 178.637 190.456,180.170 192.400,181.262 192.400 C 184.195 192.400,186.800 195.888,186.800 199.815 C 186.800 205.616,185.010 208.977,181.347 210.059 C 180.386 210.343,179.600 210.695,179.600 210.842 C 179.600 210.990,179.002 211.985,178.271 213.055 C 177.540 214.125,176.686 215.585,176.373 216.300 C 176.061 217.015,175.714 217.600,175.602 217.600 C 175.491 217.601,174.877 218.051,174.238 218.600 C 173.599 219.150,172.950 219.600,172.797 219.600 C 172.256 219.600,170.025 221.992,169.357 223.287 C 168.195 225.545,166.719 227.225,165.232 227.985 C 163.698 228.769,162.066 230.432,160.306 233.002 C 159.235 234.568,157.711 235.797,155.122 237.186 C 154.409 237.568,153.461 238.519,153.013 239.300 C 151.948 241.159,149.704 243.621,148.200 244.581 C 147.540 245.002,146.766 245.580,146.480 245.865 C 146.194 246.149,145.720 246.521,145.425 246.691 C 145.131 246.861,144.439 247.810,143.888 248.800 C 143.318 249.824,142.049 251.188,140.943 251.964 C 139.874 252.714,138.940 253.479,138.867 253.664 C 138.793 253.849,138.570 254.000,138.370 254.000 C 137.844 254.000,136.005 255.667,135.973 256.172 C 135.914 257.133,133.294 260.145,131.784 260.990 C 129.735 262.136,127.863 264.001,127.231 265.524 C 126.584 267.087,124.601 269.081,122.760 270.020 C 121.287 270.772,118.800 273.398,118.800 274.202 C 118.800 274.955,116.575 277.079,115.006 277.824 C 112.082 279.211,110.657 281.310,109.182 286.400 C 108.895 287.390,108.386 288.691,108.050 289.290 C 107.516 290.243,107.500 291.126,107.922 296.290 C 108.694 305.723,108.588 425.992,107.800 434.800 C 107.475 438.430,107.208 442.075,107.205 442.900 L 107.200 444.400 148.463 444.400 L 189.726 444.400 189.464 436.500 C 188.984 422.092,189.149 223.791,189.647 214.800 C 190.500 199.427,189.822 177.781,188.458 176.808 C 188.298 176.694,187.342 175.300,186.335 173.710 C 184.472 170.770,181.516 167.128,179.464 165.243 C 178.839 164.670,177.039 162.909,175.464 161.330 C 173.889 159.752,172.355 158.222,172.056 157.930 C 171.757 157.639,169.207 155.150,166.389 152.400 C 163.571 149.650,160.245 146.500,158.997 145.400 C 155.885 142.658,149.781 136.594,147.600 134.079 C 146.610 132.937,143.595 129.743,140.900 126.980 C 138.205 124.218,136.000 121.787,136.000 121.579 C 136.000 121.370,135.822 121.200,135.605 121.200 C 135.264 121.200,131.746 117.752,128.370 114.111 C 127.804 113.500,126.229 111.962,124.870 110.693 C 123.512 109.423,122.400 108.208,122.400 107.993 C 122.400 107.777,122.199 107.600,121.954 107.600 C 121.461 107.600,118.800 104.834,118.800 104.322 C 118.800 104.145,118.578 104.000,118.307 104.000 C 117.054 104.000,110.865 96.829,110.228 94.638 C 108.984 90.357,109.856 84.036,111.695 84.005 C 112.320 83.994,113.675 82.540,114.308 81.200 C 114.672 80.430,115.201 79.562,115.485 79.271 C 115.768 78.981,116.000 78.555,116.000 78.324 C 116.000 77.551,118.983 74.961,120.888 74.080 C 122.136 73.503,123.002 72.766,123.444 71.904 C 123.811 71.187,124.226 70.510,124.366 70.400 C 124.506 70.290,125.183 69.480,125.870 68.600 C 126.557 67.720,128.023 66.460,129.128 65.800 C 130.479 64.993,131.695 63.779,132.839 62.094 C 133.775 60.715,135.185 59.105,135.971 58.515 C 136.757 57.925,137.490 57.342,137.600 57.221 C 137.710 57.099,138.317 56.732,138.948 56.406 C 139.580 56.080,140.194 55.540,140.312 55.206 C 140.815 53.785,143.309 50.834,144.890 49.788 C 146.890 48.465,149.600 45.743,149.600 45.058 C 149.600 44.212,152.005 41.635,153.422 40.963 C 154.180 40.603,154.800 40.149,154.800 39.954 C 154.800 39.759,154.993 39.600,155.229 39.600 C 155.464 39.600,155.869 39.375,156.129 39.100 C 156.963 38.215,158.800 35.662,158.800 35.387 C 158.800 34.908,161.220 32.848,162.116 32.563 C 163.295 32.189,166.515 28.854,167.129 27.371 C 167.433 26.637,168.642 25.489,170.269 24.389 C 172.506 22.877,176.000 19.081,176.000 18.164 C 176.000 17.727,177.672 16.403,179.048 15.750 C 180.200 15.204,183.200 12.358,183.200 11.812 C 183.200 11.237,185.057 8.809,185.500 8.805 C 185.775 8.802,186.000 8.652,186.000 8.471 C 186.000 8.290,186.766 7.759,187.703 7.291 C 189.632 6.328,192.000 2.905,192.000 1.081 L 192.000 0.000 116.400 0.000 L 40.800 0.000 40.800 1.247 M214.800 1.117 C 214.800 1.843,215.289 2.752,216.200 3.718 C 216.970 4.534,217.600 5.279,217.600 5.373 C 217.600 5.467,218.522 6.412,219.649 7.472 C 220.776 8.533,222.171 9.913,222.749 10.539 C 223.327 11.165,224.134 11.975,224.542 12.339 C 224.950 12.703,227.981 15.655,231.276 18.900 C 234.572 22.145,237.435 24.800,237.640 24.800 C 238.023 24.800,239.523 26.253,243.956 30.915 C 245.361 32.394,247.107 33.972,247.835 34.422 C 248.564 34.872,249.524 35.830,249.969 36.550 C 250.415 37.271,251.222 38.339,251.763 38.923 C 252.305 39.507,253.253 40.663,253.871 41.492 C 254.490 42.322,255.231 43.149,255.520 43.332 C 255.808 43.515,257.789 45.475,259.922 47.687 C 262.055 49.900,265.117 52.991,266.727 54.555 C 275.264 62.851,277.380 64.839,278.725 65.824 C 279.536 66.419,281.951 68.682,284.092 70.853 C 286.232 73.024,288.152 74.800,288.358 74.800 C 288.565 74.800,288.793 74.967,288.867 75.172 C 288.940 75.377,289.940 76.526,291.088 77.726 C 295.506 82.342,297.442 91.246,295.192 96.600 C 294.914 97.260,294.446 98.362,294.150 99.048 C 293.854 99.734,292.934 100.808,292.106 101.434 C 291.278 102.059,290.376 102.789,290.102 103.055 C 289.828 103.321,289.198 103.867,288.702 104.269 C 288.206 104.671,287.542 105.499,287.228 106.109 C 286.364 107.782,284.803 109.330,282.800 110.502 C 280.461 111.869,279.240 113.012,277.891 115.097 C 277.287 116.030,276.032 117.290,275.102 117.897 C 271.847 120.020,270.704 121.112,268.809 123.913 C 267.951 125.180,266.784 126.294,265.765 126.818 C 264.019 127.716,261.775 130.128,260.635 132.333 C 260.259 133.060,258.790 134.497,257.372 135.525 C 255.595 136.814,254.335 138.143,253.322 139.798 C 251.678 142.484,251.337 142.835,248.515 144.761 C 247.421 145.507,245.823 147.105,244.963 148.312 C 242.974 151.105,241.893 152.123,239.754 153.223 C 238.807 153.711,237.571 154.810,237.001 155.671 C 235.502 157.936,233.270 160.084,231.137 161.315 C 229.898 162.030,228.842 163.094,227.981 164.495 C 226.611 166.724,226.022 167.337,223.794 168.854 C 223.030 169.374,222.404 169.935,222.403 170.100 C 222.401 170.265,222.207 170.400,221.971 170.400 C 221.225 170.400,220.484 171.421,220.059 173.036 C 219.832 173.896,219.412 175.500,219.124 176.600 C 218.492 179.014,218.550 189.198,219.229 194.800 C 219.489 196.951,219.569 199.902,219.413 201.600 C 219.261 203.250,218.986 257.340,218.802 321.800 C 218.617 386.260,218.346 440.215,218.199 441.700 L 217.932 444.400 259.166 444.400 L 300.400 444.400 300.397 443.500 C 300.395 443.005,300.120 440.350,299.787 437.600 C 299.264 433.289,299.189 422.762,299.237 361.200 C 299.290 293.802,299.211 287.101,298.366 286.579 C 298.177 286.462,297.667 285.562,297.232 284.578 C 296.742 283.472,294.946 281.288,292.520 278.851 C 286.315 272.616,283.200 269.304,283.197 268.938 C 283.195 268.752,282.565 267.937,281.797 267.127 C 281.028 266.316,280.400 265.470,280.400 265.246 C 280.400 265.022,279.545 264.260,278.500 263.552 C 277.455 262.845,274.754 260.406,272.498 258.133 C 270.242 255.860,268.300 254.000,268.183 254.000 C 267.771 254.000,256.000 242.044,256.000 241.625 C 256.000 241.391,255.769 241.200,255.486 241.200 C 254.881 241.200,240.972 227.150,239.610 225.162 C 239.096 224.413,238.404 223.578,238.071 223.307 C 235.419 221.146,233.875 219.760,232.074 217.927 C 227.816 213.591,226.531 212.162,225.488 210.600 C 224.900 209.720,223.793 208.504,223.027 207.897 C 221.516 206.700,221.347 206.166,220.834 201.000 C 220.585 198.496,220.644 197.539,221.104 196.600 C 221.855 195.066,223.595 193.200,224.275 193.200 C 224.564 193.200,224.800 192.943,224.800 192.629 C 224.800 192.314,225.025 191.819,225.301 191.529 C 225.576 191.238,226.282 190.280,226.870 189.400 C 227.958 187.770,231.175 184.291,232.608 183.193 C 233.043 182.860,234.120 182.051,235.000 181.397 C 236.863 180.013,238.171 178.644,239.106 177.100 C 239.473 176.495,239.914 176.000,240.086 176.000 C 240.259 176.000,240.400 175.811,240.400 175.581 C 240.400 175.133,248.657 166.452,252.554 162.804 C 253.848 161.592,255.918 159.522,257.154 158.205 C 259.244 155.976,262.253 153.021,265.604 149.905 C 266.376 149.187,267.726 147.775,268.604 146.768 C 269.482 145.760,271.010 144.322,272.000 143.573 C 274.284 141.846,283.898 132.255,285.206 130.400 C 286.381 128.733,288.777 126.322,291.142 124.424 C 292.086 123.668,293.101 122.588,293.397 122.024 C 294.059 120.769,296.515 118.170,298.400 116.731 C 300.730 114.952,302.694 113.050,303.165 112.115 C 304.047 110.369,308.450 108.104,312.211 107.462 C 315.992 106.817,324.800 109.836,324.800 111.777 C 324.800 112.128,328.529 115.815,332.105 118.999 C 333.587 120.319,334.800 121.502,334.800 121.628 C 334.800 121.978,341.256 128.400,341.608 128.400 C 341.778 128.400,342.468 129.259,343.142 130.309 C 343.816 131.360,345.091 132.845,345.975 133.609 C 346.859 134.374,347.586 135.144,347.591 135.320 C 347.602 135.715,350.485 138.395,350.900 138.398 C 351.065 138.399,351.200 138.670,351.200 139.000 C 351.200 139.330,351.346 139.600,351.525 139.600 C 351.703 139.600,352.200 139.915,352.629 140.300 C 353.057 140.685,354.216 141.651,355.204 142.447 C 356.192 143.243,359.507 146.348,362.571 149.347 C 365.635 152.346,368.290 154.800,368.471 154.800 C 368.652 154.800,368.800 154.988,368.800 155.218 C 368.800 155.448,371.005 157.849,373.700 160.554 C 376.395 163.258,379.077 165.995,379.660 166.635 C 380.243 167.276,381.323 168.357,382.060 169.037 C 383.642 170.498,385.233 172.262,387.413 174.973 C 391.293 179.796,397.385 185.200,398.944 185.200 L 400.000 185.200 400.000 107.600 L 400.000 30.000 398.866 30.000 C 397.175 30.000,394.522 27.136,392.456 23.081 C 390.635 19.506,389.799 18.500,387.800 17.483 C 387.140 17.147,385.160 15.419,383.400 13.644 C 380.884 11.105,379.954 10.413,379.046 10.408 C 373.411 10.371,366.000 5.109,366.000 1.144 L 366.000 0.000 290.400 0.000 L 214.800 0.000 214.800 1.117 M7.394 214.600 C 7.528 215.480,7.826 217.308,8.057 218.663 C 8.340 220.326,8.497 250.555,8.538 311.663 C 8.585 380.876,8.714 402.765,9.086 404.600 C 9.353 405.920,9.770 408.620,10.013 410.600 C 10.710 416.278,10.801 416.743,11.330 417.287 C 11.605 417.569,12.362 418.520,13.014 419.400 C 13.667 420.280,14.425 421.238,14.700 421.529 C 14.975 421.819,15.200 422.191,15.200 422.354 C 15.200 422.517,16.007 423.539,16.994 424.625 C 17.981 425.711,19.089 427.259,19.456 428.065 C 19.823 428.871,20.591 429.771,21.162 430.065 C 21.733 430.359,22.801 431.140,23.536 431.800 C 25.271 433.360,25.303 433.376,29.024 434.596 C 32.501 435.737,34.800 436.809,34.800 437.291 C 34.800 437.461,35.025 437.603,35.300 437.607 C 35.980 437.616,37.605 441.493,37.602 443.100 L 37.600 444.400 58.600 444.400 C 78.336 444.400,79.600 444.358,79.592 443.700 C 79.588 443.315,79.321 440.570,79.000 437.600 C 78.324 431.348,78.148 310.811,78.796 298.000 L 79.151 291.000 77.929 288.500 C 77.257 287.125,76.548 286.000,76.354 286.000 C 76.159 286.000,76.000 285.752,76.000 285.449 C 76.000 285.146,75.730 284.674,75.400 284.400 C 75.070 284.126,74.800 283.599,74.800 283.229 C 74.800 282.458,72.316 279.600,71.646 279.600 C 71.401 279.600,71.200 279.431,71.200 279.225 C 71.200 279.019,70.383 278.263,69.384 277.546 C 68.341 276.796,67.052 275.340,66.355 274.122 C 65.625 272.846,64.239 271.304,62.871 270.246 C 60.567 268.464,58.800 266.654,58.800 266.076 C 58.800 265.220,56.111 262.266,54.461 261.308 C 52.105 259.941,50.751 258.591,49.886 256.743 C 49.139 255.148,46.903 252.997,45.251 252.285 C 43.969 251.732,41.200 248.966,41.200 248.239 C 41.200 247.379,38.714 245.072,36.672 244.037 C 34.938 243.158,33.849 242.137,31.900 239.562 C 31.515 239.053,31.200 238.475,31.200 238.276 C 31.200 237.819,29.443 236.430,27.651 235.469 C 25.867 234.513,25.367 233.992,23.198 230.829 C 22.145 229.295,20.646 227.716,19.597 227.038 C 18.609 226.398,17.080 224.885,16.200 223.675 C 14.407 221.209,10.974 217.600,10.422 217.600 C 10.224 217.600,9.407 216.565,8.606 215.300 L 7.151 213.000 7.394 214.600 M394.425 219.652 C 392.569 221.603,390.544 223.423,389.925 223.697 C 389.306 223.971,388.800 224.358,388.800 224.556 C 388.800 224.755,388.128 225.746,387.306 226.759 C 386.484 227.771,385.629 228.838,385.406 229.129 C 385.183 229.421,384.063 230.591,382.917 231.729 C 381.771 232.868,379.701 234.950,378.317 236.356 C 376.933 237.761,374.101 240.551,372.026 242.556 C 369.950 244.560,367.790 246.720,367.226 247.355 C 364.735 250.161,361.261 253.410,359.647 254.444 C 358.683 255.062,357.311 256.430,356.598 257.484 C 355.452 259.179,352.458 262.000,351.807 262.000 C 351.674 262.000,351.349 262.191,351.083 262.424 C 350.817 262.657,350.020 263.191,349.310 263.611 C 348.579 264.045,347.750 265.024,347.395 265.874 C 347.051 266.698,346.640 267.468,346.482 267.586 C 346.324 267.704,345.690 268.478,345.073 269.306 C 344.456 270.134,343.017 271.517,341.875 272.379 C 340.734 273.242,339.451 274.544,339.025 275.274 C 338.599 276.003,337.744 277.077,337.125 277.660 C 336.506 278.244,336.000 278.919,336.000 279.160 C 336.000 279.402,335.865 279.600,335.700 279.601 C 335.535 279.601,334.770 280.142,334.000 280.803 C 333.230 281.463,332.302 282.100,331.937 282.217 C 331.303 282.421,330.563 283.921,329.375 287.416 C 328.918 288.759,328.807 302.112,328.713 366.716 L 328.600 444.400 348.300 444.400 L 368.000 444.400 368.000 443.374 C 368.000 441.955,368.410 441.231,370.800 438.429 C 372.116 436.886,374.745 435.618,378.800 434.570 C 380.422 434.150,382.400 433.139,382.400 432.728 C 382.400 432.150,386.782 428.030,388.149 427.323 C 389.753 426.494,390.415 425.653,392.815 421.400 C 394.963 417.594,397.092 415.600,399.005 415.600 L 400.000 415.600 400.000 315.800 L 400.000 216.000 398.900 216.052 C 398.069 216.092,396.974 216.973,394.425 219.652 " stroke="none" fill="#d72e10" fill-rule="evenodd"></path><path id="path2" d="M0.000 17.000 L 0.000 34.000 1.029 34.000 C 2.315 34.000,2.751 33.550,4.130 30.800 C 5.273 28.520,6.054 27.145,6.402 26.800 C 6.513 26.690,6.854 25.880,7.160 25.000 C 8.512 21.103,9.743 19.123,11.839 17.469 C 13.003 16.551,13.965 15.615,13.978 15.388 C 13.990 15.162,14.369 14.712,14.820 14.388 C 15.272 14.065,16.186 12.951,16.853 11.914 C 17.952 10.204,21.317 7.600,22.427 7.600 C 24.042 7.600,29.200 2.709,29.200 1.178 L 29.200 0.000 14.600 0.000 L 0.000 0.000 0.000 17.000 M377.600 1.401 C 377.600 3.159,379.586 5.071,383.833 7.400 C 388.592 10.010,395.000 15.924,396.852 19.416 C 397.622 20.866,398.004 21.200,398.899 21.200 L 400.000 21.200 400.000 10.600 L 400.000 0.000 388.800 0.000 L 377.600 0.000 377.600 1.401 M-0.000 427.975 L 0.000 444.400 13.800 444.400 L 27.600 444.400 27.600 443.231 C 27.600 441.649,24.427 438.300,21.864 437.178 C 20.800 436.712,19.562 436.031,19.114 435.665 C 17.629 434.452,16.400 433.168,16.400 432.830 C 16.400 432.647,15.680 431.755,14.800 430.848 C 13.920 429.941,13.200 429.019,13.200 428.800 C 13.200 428.580,13.047 428.400,12.859 428.400 C 12.085 428.400,8.800 424.693,8.800 423.819 C 8.800 423.505,8.642 423.149,8.448 423.030 C 8.254 422.910,7.815 421.954,7.473 420.906 C 6.227 417.099,2.670 411.816,1.256 411.675 L -0.000 411.549 -0.000 427.975 M396.716 426.118 C 394.484 429.650,387.806 435.913,384.787 437.304 C 384.010 437.662,382.988 438.280,382.516 438.677 C 382.043 439.075,381.014 439.903,380.228 440.517 C 379.081 441.414,378.800 441.907,378.800 443.017 L 378.800 444.400 389.400 444.400 L 400.000 444.400 400.000 434.400 L 400.000 424.400 398.900 424.401 C 398.040 424.401,397.564 424.775,396.716 426.118 " stroke="none" fill="#150705" fill-rule="evenodd"></path><path id="path3" d="M29.200 1.178 C 29.200 2.709,24.042 7.600,22.427 7.600 C 21.317 7.600,17.952 10.204,16.853 11.914 C 16.186 12.951,15.272 14.065,14.820 14.388 C 14.369 14.712,13.990 15.162,13.978 15.388 C 13.965 15.615,13.003 16.551,11.839 17.469 C 9.743 19.123,8.512 21.103,7.160 25.000 C 6.854 25.880,6.513 26.690,6.402 26.800 C 6.054 27.145,5.273 28.520,4.130 30.800 C 2.751 33.550,2.315 34.000,1.029 34.000 L 0.000 34.000 0.000 114.400 L 0.000 194.800 1.300 194.803 C 4.126 194.810,7.600 189.518,7.600 185.206 C 7.600 184.572,7.802 183.545,8.048 182.926 C 8.374 182.108,8.480 163.424,8.436 114.600 C 8.398 72.267,8.522 46.216,8.772 44.200 C 8.990 42.440,9.370 39.560,9.617 37.800 C 9.864 36.040,10.207 33.298,10.379 31.708 C 10.551 30.117,10.941 28.475,11.246 28.059 C 13.506 24.971,15.401 22.579,15.675 22.467 C 15.854 22.393,16.000 22.160,16.000 21.949 C 16.000 21.738,16.463 21.078,17.029 20.483 C 17.595 19.887,18.592 18.638,19.244 17.707 C 21.585 14.362,29.000 9.600,31.868 9.600 C 32.166 9.600,32.723 9.440,33.105 9.244 C 33.487 9.049,34.463 8.564,35.273 8.168 C 36.084 7.771,36.980 7.011,37.265 6.479 C 37.549 5.947,38.461 4.833,39.291 4.003 C 40.391 2.903,40.800 2.156,40.800 1.247 L 40.800 0.000 35.000 0.000 L 29.200 0.000 29.200 1.178 M366.000 1.144 C 366.000 5.109,373.411 10.371,379.046 10.408 C 379.954 10.413,380.884 11.105,383.400 13.644 C 385.160 15.419,387.140 17.147,387.800 17.483 C 389.799 18.500,390.635 19.506,392.456 23.081 C 394.522 27.136,397.175 30.000,398.866 30.000 L 400.000 30.000 400.000 25.600 L 400.000 21.200 398.899 21.200 C 398.004 21.200,397.622 20.866,396.852 19.416 C 395.000 15.924,388.592 10.010,383.833 7.400 C 379.586 5.071,377.600 3.159,377.600 1.401 L 377.600 0.000 371.800 0.000 L 366.000 0.000 366.000 1.144 M0.000 309.375 L 0.000 411.549 1.256 411.675 C 2.670 411.816,6.227 417.099,7.473 420.906 C 7.815 421.954,8.254 422.910,8.448 423.030 C 8.642 423.149,8.800 423.505,8.800 423.819 C 8.800 424.693,12.085 428.400,12.859 428.400 C 13.047 428.400,13.200 428.580,13.200 428.800 C 13.200 429.019,13.920 429.941,14.800 430.848 C 15.680 431.755,16.400 432.647,16.400 432.830 C 16.400 433.168,17.629 434.452,19.114 435.665 C 19.562 436.031,20.800 436.712,21.864 437.178 C 24.427 438.300,27.600 441.649,27.600 443.231 L 27.600 444.400 32.600 444.400 L 37.600 444.400 37.602 443.100 C 37.605 441.493,35.980 437.616,35.300 437.607 C 35.025 437.603,34.800 437.461,34.800 437.291 C 34.800 436.809,32.501 435.737,29.024 434.596 C 25.303 433.376,25.271 433.360,23.536 431.800 C 22.801 431.140,21.733 430.359,21.162 430.065 C 20.591 429.771,19.823 428.871,19.456 428.065 C 19.089 427.259,17.981 425.711,16.994 424.625 C 16.007 423.539,15.200 422.517,15.200 422.354 C 15.200 422.191,14.975 421.819,14.700 421.529 C 14.425 421.238,13.667 420.280,13.014 419.400 C 12.362 418.520,11.605 417.569,11.330 417.287 C 10.801 416.743,10.710 416.278,10.013 410.600 C 9.770 408.620,9.353 405.920,9.086 404.600 C 8.714 402.765,8.586 380.907,8.539 311.800 C 8.478 221.098,8.457 219.652,7.140 213.540 C 6.604 211.051,2.985 207.200,1.183 207.200 L 0.000 207.200 0.000 309.375 M396.323 416.730 C 395.379 417.414,394.114 419.098,392.815 421.400 C 390.415 425.653,389.753 426.494,388.149 427.323 C 386.782 428.030,382.400 432.150,382.400 432.728 C 382.400 433.139,380.422 434.150,378.800 434.570 C 374.745 435.618,372.116 436.886,370.800 438.429 C 368.410 441.231,368.000 441.955,368.000 443.374 L 368.000 444.400 373.400 444.400 L 378.800 444.400 378.800 443.017 C 378.800 441.907,379.081 441.414,380.228 440.517 C 381.014 439.903,382.043 439.075,382.516 438.677 C 382.988 438.280,384.010 437.662,384.787 437.304 C 387.806 435.913,394.484 429.650,396.716 426.118 C 397.564 424.775,398.040 424.401,398.900 424.401 L 400.000 424.400 400.000 420.000 L 400.000 415.600 398.900 415.630 C 398.295 415.647,397.136 416.142,396.323 416.730 " stroke="none" fill="#84250f" fill-rule="evenodd"></path><path id="path4" d="M192.000 1.081 C 192.000 2.905,189.632 6.328,187.703 7.291 C 186.766 7.759,186.000 8.290,186.000 8.471 C 186.000 8.652,185.775 8.802,185.500 8.805 C 185.057 8.809,183.200 11.237,183.200 11.812 C 183.200 12.358,180.200 15.204,179.048 15.750 C 177.672 16.403,176.000 17.727,176.000 18.164 C 176.000 19.081,172.506 22.877,170.269 24.389 C 168.642 25.489,167.433 26.637,167.129 27.371 C 166.515 28.854,163.295 32.189,162.116 32.563 C 161.220 32.848,158.800 34.908,158.800 35.387 C 158.800 35.662,156.963 38.215,156.129 39.100 C 155.869 39.375,155.464 39.600,155.229 39.600 C 154.993 39.600,154.800 39.759,154.800 39.954 C 154.800 40.149,154.180 40.603,153.422 40.963 C 152.005 41.635,149.600 44.212,149.600 45.058 C 149.600 45.743,146.890 48.465,144.890 49.788 C 143.309 50.834,140.815 53.785,140.312 55.206 C 140.194 55.540,139.580 56.080,138.948 56.406 C 138.317 56.732,137.710 57.099,137.600 57.221 C 137.490 57.342,136.757 57.925,135.971 58.515 C 135.185 59.105,133.775 60.715,132.839 62.094 C 131.695 63.779,130.479 64.993,129.128 65.800 C 128.023 66.460,126.557 67.720,125.870 68.600 C 125.183 69.480,124.506 70.290,124.366 70.400 C 124.226 70.510,123.811 71.187,123.444 71.904 C 123.002 72.766,122.136 73.503,120.888 74.080 C 118.983 74.961,116.000 77.551,116.000 78.324 C 116.000 78.555,115.768 78.981,115.485 79.271 C 115.201 79.562,114.672 80.430,114.308 81.200 C 113.675 82.540,112.320 83.994,111.695 84.005 C 109.856 84.036,108.984 90.357,110.228 94.638 C 110.865 96.829,117.054 104.000,118.307 104.000 C 118.578 104.000,118.800 104.145,118.800 104.322 C 118.800 104.834,121.461 107.600,121.954 107.600 C 122.199 107.600,122.400 107.777,122.400 107.993 C 122.400 108.208,123.512 109.423,124.870 110.693 C 126.229 111.962,127.804 113.500,128.370 114.111 C 131.746 117.752,135.264 121.200,135.605 121.200 C 135.822 121.200,136.000 121.370,136.000 121.579 C 136.000 121.787,138.205 124.218,140.900 126.980 C 143.595 129.743,146.610 132.937,147.600 134.079 C 149.781 136.594,155.885 142.658,158.997 145.400 C 160.245 146.500,163.571 149.650,166.389 152.400 C 169.207 155.150,171.757 157.639,172.056 157.930 C 172.355 158.222,173.889 159.752,175.464 161.330 C 177.039 162.909,178.839 164.670,179.464 165.243 C 181.516 167.128,184.472 170.770,186.335 173.710 C 187.342 175.300,188.298 176.694,188.458 176.808 C 189.822 177.781,190.500 199.427,189.647 214.800 C 189.149 223.791,188.984 422.092,189.464 436.500 L 189.726 444.400 193.105 444.400 L 196.483 444.400 196.194 441.136 C 196.035 439.340,195.673 437.315,195.389 436.636 C 193.973 433.245,193.951 431.078,194.213 320.200 C 194.527 187.094,194.516 180.516,193.984 177.000 C 193.751 175.460,193.460 173.519,193.337 172.688 C 193.095 171.050,191.150 168.714,188.954 167.423 C 188.269 167.021,187.423 166.221,187.074 165.646 C 186.725 165.071,185.982 164.060,185.422 163.400 C 184.863 162.740,183.910 161.615,183.306 160.900 C 182.702 160.185,182.026 159.595,181.804 159.589 C 181.182 159.573,179.088 157.612,177.360 155.429 C 175.212 152.713,173.262 150.867,171.818 150.180 C 171.148 149.862,170.097 148.804,169.482 147.830 C 168.017 145.510,165.862 143.331,163.320 141.600 C 162.189 140.830,160.995 139.748,160.666 139.196 C 160.071 138.198,155.725 133.885,154.200 132.780 C 153.383 132.188,151.200 129.447,151.200 129.013 C 151.200 128.602,148.449 126.000,148.013 126.000 C 147.786 126.000,147.600 125.837,147.600 125.637 C 147.600 125.437,146.794 124.763,145.808 124.140 C 144.792 123.497,143.807 122.486,143.532 121.803 C 142.990 120.458,141.184 118.550,138.212 116.183 C 134.951 113.587,134.800 113.443,134.800 112.928 C 134.800 112.339,132.612 110.087,129.623 107.600 C 126.971 105.393,126.000 104.380,126.000 103.821 C 126.000 103.586,125.251 102.765,124.335 101.997 C 123.419 101.228,121.511 99.472,120.095 98.092 L 117.520 95.585 117.520 91.168 C 117.520 87.830,117.665 86.586,118.114 86.076 C 118.441 85.704,119.172 84.475,119.739 83.344 C 120.885 81.056,120.985 80.941,124.012 78.400 C 125.192 77.410,126.707 76.005,127.378 75.278 C 128.050 74.551,129.746 72.841,131.146 71.478 C 132.547 70.115,134.527 68.107,135.546 67.016 C 136.566 65.925,138.288 64.215,139.374 63.216 C 140.460 62.217,142.350 60.327,143.574 59.017 C 144.798 57.706,147.354 55.096,149.252 53.217 C 151.151 51.337,153.000 49.170,153.361 48.400 C 153.722 47.630,154.823 46.460,155.808 45.800 C 156.793 45.140,157.599 44.465,157.599 44.300 C 157.600 44.135,157.798 44.000,158.040 44.000 C 158.627 44.000,160.331 42.141,162.022 39.658 C 162.780 38.545,163.913 37.417,164.540 37.152 C 165.828 36.607,170.400 32.402,170.400 31.761 C 170.400 31.127,172.396 29.118,174.303 27.834 C 176.193 26.561,178.649 23.923,179.659 22.079 C 180.022 21.418,181.282 20.260,182.459 19.506 C 184.652 18.103,186.241 16.496,187.993 13.909 C 188.539 13.103,189.672 12.029,190.510 11.522 C 195.371 8.583,197.476 6.598,197.571 4.863 C 197.587 4.568,197.960 3.869,198.400 3.309 C 198.840 2.750,199.200 1.776,199.200 1.146 L 199.200 0.000 195.600 0.000 L 192.000 0.000 192.000 1.081 M207.600 1.924 C 207.600 2.996,207.860 4.191,208.187 4.624 C 208.510 5.051,208.780 5.646,208.787 5.947 C 208.802 6.602,211.189 8.785,211.900 8.794 C 212.175 8.797,212.402 8.935,212.405 9.100 C 212.407 9.265,213.149 9.755,214.053 10.188 C 214.957 10.621,215.976 11.431,216.317 11.988 C 217.158 13.362,222.078 18.165,223.511 19.011 C 224.148 19.387,224.996 20.303,225.396 21.045 C 226.227 22.588,229.351 25.580,231.638 27.024 C 232.492 27.563,233.868 28.879,234.696 29.948 C 235.523 31.016,236.749 32.274,237.420 32.742 C 238.091 33.210,239.801 34.781,241.220 36.232 C 242.639 37.683,245.127 40.160,246.748 41.735 C 248.369 43.311,250.249 45.403,250.926 46.385 C 252.575 48.779,254.018 50.235,255.064 50.562 C 255.540 50.710,256.193 51.229,256.515 51.716 C 256.838 52.202,257.664 53.183,258.351 53.896 C 259.038 54.609,259.600 55.334,259.600 55.507 C 259.600 56.174,263.256 59.600,263.967 59.600 C 264.164 59.600,265.107 60.537,266.063 61.683 C 269.141 65.374,271.307 67.600,271.818 67.600 C 272.093 67.600,274.091 69.411,276.259 71.625 C 278.426 73.839,280.761 75.999,281.447 76.425 C 282.132 76.851,283.150 77.874,283.709 78.700 C 284.904 80.463,286.009 81.842,288.200 84.300 C 289.080 85.288,289.939 86.335,290.108 86.627 C 290.599 87.473,290.563 92.549,290.059 93.490 C 289.806 93.962,289.600 94.621,289.600 94.955 C 289.600 95.288,288.381 96.785,286.891 98.281 C 285.402 99.776,283.747 101.837,283.213 102.860 C 282.680 103.883,281.694 105.039,281.022 105.430 C 280.350 105.820,279.710 106.244,279.600 106.372 C 279.490 106.500,278.680 107.134,277.800 107.782 C 276.386 108.822,275.594 109.596,274.505 111.000 C 274.334 111.220,273.987 111.869,273.733 112.441 C 273.479 113.014,272.525 113.871,271.613 114.347 C 269.803 115.290,269.392 115.589,267.361 117.440 C 266.612 118.123,266.000 118.888,266.000 119.140 C 266.000 119.393,265.861 119.600,265.691 119.600 C 265.521 119.600,265.050 120.217,264.644 120.971 C 264.236 121.728,263.352 122.572,262.670 122.854 C 261.028 123.534,258.026 126.550,256.686 128.865 C 256.090 129.896,254.934 131.135,254.104 131.635 C 252.601 132.539,250.000 135.045,250.000 135.588 C 250.000 135.746,249.537 136.399,248.972 137.038 C 248.406 137.677,247.780 138.606,247.581 139.102 C 247.381 139.598,246.561 140.318,245.757 140.701 C 244.208 141.440,241.998 143.478,240.223 145.806 C 238.461 148.115,237.477 149.046,236.000 149.800 C 235.230 150.192,233.240 151.928,231.577 153.657 C 229.915 155.386,228.415 156.800,228.245 156.800 C 227.857 156.800,223.200 161.434,223.200 161.821 C 223.200 161.978,222.795 162.453,222.300 162.876 C 217.184 167.254,215.929 169.061,212.436 177.092 C 211.202 179.929,211.180 180.089,211.258 185.692 C 211.310 189.451,211.158 192.014,210.812 193.200 C 210.195 195.311,210.175 206.391,210.783 209.200 C 210.997 210.190,211.313 212.170,211.486 213.600 C 212.043 218.215,211.478 433.674,210.906 434.600 C 210.131 435.856,208.770 440.339,208.518 442.467 L 208.289 444.400 213.110 444.400 L 217.932 444.400 218.199 441.700 C 218.346 440.215,218.617 386.260,218.802 321.800 C 218.986 257.340,219.261 203.250,219.413 201.600 C 219.569 199.902,219.489 196.951,219.229 194.800 C 218.550 189.198,218.492 179.014,219.124 176.600 C 219.412 175.500,219.832 173.896,220.059 173.036 C 220.484 171.421,221.225 170.400,221.971 170.400 C 222.207 170.400,222.401 170.265,222.403 170.100 C 222.404 169.935,223.030 169.374,223.794 168.854 C 226.022 167.337,226.611 166.724,227.981 164.495 C 228.842 163.094,229.898 162.030,231.137 161.315 C 233.270 160.084,235.502 157.936,237.001 155.671 C 237.571 154.810,238.807 153.711,239.754 153.223 C 241.893 152.123,242.974 151.105,244.963 148.312 C 245.823 147.105,247.421 145.507,248.515 144.761 C 251.337 142.835,251.678 142.484,253.322 139.798 C 254.335 138.143,255.595 136.814,257.372 135.525 C 258.790 134.497,260.259 133.060,260.635 132.333 C 261.775 130.128,264.019 127.716,265.765 126.818 C 266.784 126.294,267.951 125.180,268.809 123.913 C 270.704 121.112,271.847 120.020,275.102 117.897 C 276.032 117.290,277.287 116.030,277.891 115.097 C 279.240 113.012,280.461 111.869,282.800 110.502 C 284.803 109.330,286.364 107.782,287.228 106.109 C 287.542 105.499,288.206 104.671,288.702 104.269 C 289.198 103.867,289.828 103.321,290.102 103.055 C 290.376 102.789,291.278 102.059,292.106 101.434 C 292.934 100.808,293.854 99.734,294.150 99.048 C 294.446 98.362,294.914 97.260,295.192 96.600 C 297.442 91.246,295.506 82.342,291.088 77.726 C 289.940 76.526,288.940 75.377,288.867 75.172 C 288.793 74.967,288.565 74.800,288.358 74.800 C 288.152 74.800,286.232 73.024,284.092 70.853 C 281.951 68.682,279.536 66.419,278.725 65.824 C 277.380 64.839,275.264 62.851,266.727 54.555 C 265.117 52.991,262.055 49.900,259.922 47.687 C 257.789 45.475,255.808 43.515,255.520 43.332 C 255.231 43.149,254.490 42.322,253.871 41.492 C 253.253 40.663,252.305 39.507,251.763 38.923 C 251.222 38.339,250.415 37.271,249.969 36.550 C 249.524 35.830,248.564 34.872,247.835 34.422 C 247.107 33.972,245.361 32.394,243.956 30.915 C 239.523 26.253,238.023 24.800,237.640 24.800 C 237.435 24.800,234.572 22.145,231.276 18.900 C 227.981 15.655,224.950 12.703,224.542 12.339 C 224.134 11.975,223.327 11.165,222.749 10.539 C 222.171 9.913,220.776 8.533,219.649 7.472 C 218.522 6.412,217.600 5.467,217.600 5.373 C 217.600 5.279,216.970 4.534,216.200 3.718 C 215.289 2.752,214.800 1.843,214.800 1.117 L 214.800 0.000 211.200 0.000 L 207.600 0.000 207.600 1.924 M312.000 107.474 C 308.552 108.043,304.018 110.425,303.165 112.115 C 302.694 113.050,300.730 114.952,298.400 116.731 C 296.515 118.170,294.059 120.769,293.397 122.024 C 293.101 122.588,292.086 123.668,291.142 124.424 C 288.777 126.322,286.381 128.733,285.206 130.400 C 283.898 132.255,274.284 141.846,272.000 143.573 C 271.010 144.322,269.482 145.760,268.604 146.768 C 267.726 147.775,266.376 149.187,265.604 149.905 C 262.253 153.021,259.244 155.976,257.154 158.205 C 255.918 159.522,253.848 161.592,252.554 162.804 C 248.657 166.452,240.400 175.133,240.400 175.581 C 240.400 175.811,240.259 176.000,240.086 176.000 C 239.914 176.000,239.473 176.495,239.106 177.100 C 238.171 178.644,236.863 180.013,235.000 181.397 C 234.120 182.051,233.043 182.860,232.608 183.193 C 231.175 184.291,227.958 187.770,226.870 189.400 C 226.282 190.280,225.576 191.238,225.301 191.529 C 225.025 191.819,224.800 192.314,224.800 192.629 C 224.800 192.943,224.564 193.200,224.275 193.200 C 223.595 193.200,221.855 195.066,221.104 196.600 C 220.644 197.539,220.585 198.496,220.834 201.000 C 221.347 206.166,221.516 206.700,223.027 207.897 C 223.793 208.504,224.900 209.720,225.488 210.600 C 227.422 213.495,233.237 219.367,238.071 223.307 C 238.404 223.578,239.096 224.413,239.610 225.162 C 240.972 227.150,254.881 241.200,255.486 241.200 C 255.769 241.200,256.000 241.391,256.000 241.625 C 256.000 242.044,267.771 254.000,268.183 254.000 C 268.300 254.000,270.242 255.860,272.498 258.133 C 274.754 260.406,277.455 262.845,278.500 263.552 C 279.545 264.260,280.400 265.022,280.400 265.246 C 280.400 265.470,281.028 266.316,281.797 267.127 C 282.565 267.937,283.195 268.752,283.197 268.938 C 283.200 269.304,286.315 272.616,292.520 278.851 C 294.946 281.288,296.742 283.472,297.232 284.578 C 297.667 285.562,298.177 286.462,298.366 286.579 C 299.212 287.102,299.289 293.786,299.220 360.737 C 299.154 425.641,299.206 432.216,299.841 438.037 L 300.535 444.400 304.467 444.400 C 308.160 444.400,308.400 444.350,308.400 443.584 C 308.400 442.381,306.894 437.928,305.668 435.509 L 304.600 433.400 304.525 361.811 C 304.454 293.457,304.384 287.512,303.622 285.200 C 303.441 284.650,303.051 283.390,302.757 282.400 C 302.462 281.410,302.036 280.350,301.810 280.044 C 300.965 278.898,298.152 276.159,296.833 275.197 C 295.057 273.902,294.000 272.771,294.000 272.165 C 294.000 271.587,291.765 269.299,289.227 267.280 C 286.719 265.284,286.000 264.527,286.000 263.883 C 286.000 262.904,282.739 259.772,279.138 257.295 C 278.083 256.569,277.185 255.597,277.042 255.023 C 276.903 254.470,275.673 253.099,274.295 251.962 C 270.493 248.825,267.600 245.974,267.600 245.363 C 267.600 244.996,265.486 243.201,265.053 243.200 C 264.659 243.200,259.887 238.133,259.635 237.448 C 259.409 236.832,257.092 234.814,256.600 234.806 C 256.139 234.798,254.000 233.031,254.000 232.658 C 254.000 232.390,253.029 231.134,251.900 229.940 C 251.515 229.533,251.200 229.089,251.200 228.954 C 251.200 228.536,248.271 226.000,247.788 226.000 C 247.212 226.000,245.840 224.425,243.833 221.460 C 242.403 219.350,240.057 217.319,238.317 216.686 C 237.941 216.550,237.164 215.694,236.590 214.783 C 235.396 212.893,231.504 208.817,229.965 207.846 C 226.431 205.617,226.889 197.285,230.737 193.809 C 231.689 192.949,233.024 191.437,233.704 190.449 C 235.009 188.551,236.551 187.073,239.301 185.081 C 241.752 183.306,242.211 182.816,243.946 180.132 C 244.811 178.794,245.998 177.361,246.584 176.949 C 249.037 175.225,250.160 174.149,251.715 172.034 C 253.673 169.371,255.664 167.363,256.670 167.036 C 257.071 166.905,258.030 166.049,258.800 165.133 C 261.469 161.958,264.929 158.400,265.363 158.383 C 265.604 158.373,266.610 157.455,267.600 156.343 C 268.590 155.231,270.117 153.664,270.994 152.861 C 271.871 152.057,274.211 149.805,276.194 147.857 C 278.177 145.908,280.520 143.812,281.400 143.199 C 283.077 142.032,283.836 141.240,285.807 138.603 C 287.112 136.857,291.619 132.419,292.100 132.407 C 292.265 132.403,292.400 132.223,292.400 132.007 C 292.400 131.505,294.153 129.470,296.169 127.631 C 298.214 125.766,300.200 123.700,302.277 121.279 C 303.200 120.204,305.000 118.559,306.277 117.623 C 307.555 116.687,309.050 115.320,309.600 114.586 C 311.136 112.534,313.255 111.473,314.666 112.049 C 317.814 113.335,318.420 113.710,319.038 114.757 C 319.407 115.381,320.269 116.211,320.954 116.602 C 321.639 116.992,324.193 119.312,326.629 121.756 C 329.065 124.200,331.585 126.667,332.229 127.238 C 333.200 128.099,335.574 130.948,336.721 132.629 C 336.874 132.854,337.630 133.464,338.400 133.985 C 340.157 135.173,341.271 136.391,343.247 139.283 C 344.651 141.339,347.743 144.000,348.726 144.000 C 348.936 144.000,349.429 144.495,349.822 145.100 C 350.848 146.680,355.977 151.709,357.446 152.574 C 358.131 152.978,359.012 153.851,359.403 154.513 C 360.233 155.918,362.986 158.702,365.113 160.287 C 365.931 160.897,366.694 161.520,366.808 161.673 C 369.429 165.164,373.168 168.929,375.401 170.326 C 375.643 170.477,376.268 171.230,376.791 172.000 C 377.314 172.770,378.385 174.004,379.171 174.741 C 383.924 179.201,384.800 180.077,384.800 180.367 C 384.800 180.782,387.843 183.926,389.400 185.120 C 390.060 185.627,391.359 186.617,392.288 187.320 C 393.216 188.024,393.981 188.810,393.988 189.066 C 393.999 189.489,395.815 191.451,397.351 192.700 C 397.689 192.975,398.424 193.200,398.983 193.200 L 400.000 193.200 400.000 189.200 L 400.000 185.200 398.944 185.200 C 397.385 185.200,391.293 179.796,387.413 174.973 C 385.233 172.262,383.642 170.498,382.060 169.037 C 381.323 168.357,380.243 167.276,379.660 166.635 C 379.077 165.995,376.395 163.258,373.700 160.554 C 371.005 157.849,368.800 155.448,368.800 155.218 C 368.800 154.988,368.652 154.800,368.471 154.800 C 368.290 154.800,365.635 152.346,362.571 149.347 C 359.507 146.348,356.192 143.243,355.204 142.447 C 354.216 141.651,353.057 140.685,352.629 140.300 C 352.200 139.915,351.703 139.600,351.525 139.600 C 351.346 139.600,351.200 139.330,351.200 139.000 C 351.200 138.670,351.065 138.399,350.900 138.398 C 350.485 138.395,347.602 135.715,347.591 135.320 C 347.586 135.144,346.859 134.374,345.975 133.609 C 345.091 132.845,343.816 131.360,343.142 130.309 C 342.468 129.259,341.778 128.400,341.608 128.400 C 341.256 128.400,334.800 121.978,334.800 121.628 C 334.800 121.502,333.587 120.319,332.105 118.999 C 328.529 115.815,324.800 112.128,324.800 111.777 C 324.800 110.182,315.877 106.714,313.200 107.268 C 313.090 107.290,312.550 107.383,312.000 107.474 M88.600 107.981 C 85.346 108.793,82.400 111.264,82.400 113.182 C 82.400 113.401,81.815 113.879,81.100 114.246 C 80.385 114.612,79.710 115.037,79.600 115.190 C 79.490 115.344,78.521 115.980,77.446 116.604 C 76.089 117.393,75.015 118.478,73.927 120.161 C 73.066 121.493,71.785 122.946,71.081 123.388 C 68.201 125.199,66.444 126.972,65.192 129.333 C 64.626 130.400,63.367 131.733,61.936 132.781 C 59.671 134.439,57.356 137.142,56.396 139.248 C 56.138 139.815,55.313 140.520,54.563 140.814 C 53.813 141.109,53.200 141.467,53.200 141.610 C 53.200 141.754,52.764 142.070,52.230 142.314 C 51.697 142.557,50.523 143.841,49.622 145.168 C 47.843 147.788,46.189 149.600,45.576 149.600 C 45.009 149.600,42.411 151.344,42.405 151.729 C 42.402 151.909,42.175 152.294,41.900 152.584 C 41.625 152.874,41.040 153.617,40.600 154.234 C 39.336 156.008,37.679 157.471,36.285 158.043 C 34.922 158.603,32.402 161.010,32.398 161.756 C 32.394 162.441,28.873 166.000,28.199 166.000 C 27.869 166.000,27.599 166.135,27.597 166.300 C 27.596 166.465,27.065 166.901,26.418 167.270 C 25.771 167.638,24.696 168.905,24.030 170.085 C 23.364 171.265,22.071 172.854,21.158 173.616 C 18.226 176.058,16.000 178.388,16.000 179.011 C 16.000 179.580,12.122 183.600,11.574 183.600 C 10.791 183.600,8.279 186.750,7.200 189.085 C 5.990 191.704,2.815 194.800,1.339 194.800 L 0.000 194.800 0.000 201.000 L 0.000 207.200 1.183 207.200 C 2.311 207.200,6.800 211.101,6.800 212.080 C 6.800 212.655,10.050 217.600,10.427 217.600 C 10.975 217.600,14.414 221.219,16.200 223.675 C 17.080 224.885,18.609 226.398,19.597 227.038 C 20.646 227.716,22.145 229.295,23.198 230.829 C 25.367 233.992,25.867 234.513,27.651 235.469 C 29.443 236.430,31.200 237.819,31.200 238.276 C 31.200 238.475,31.515 239.053,31.900 239.562 C 33.849 242.137,34.938 243.158,36.672 244.037 C 38.714 245.072,41.200 247.379,41.200 248.239 C 41.200 248.966,43.969 251.732,45.251 252.285 C 46.903 252.997,49.139 255.148,49.886 256.743 C 50.751 258.591,52.105 259.941,54.461 261.308 C 56.111 262.266,58.800 265.220,58.800 266.076 C 58.800 266.654,60.567 268.464,62.871 270.246 C 64.239 271.304,65.625 272.846,66.355 274.122 C 67.052 275.340,68.341 276.796,69.384 277.546 C 70.383 278.263,71.200 279.019,71.200 279.225 C 71.200 279.431,71.401 279.600,71.646 279.600 C 72.316 279.600,74.800 282.458,74.800 283.229 C 74.800 283.599,75.070 284.126,75.400 284.400 C 75.730 284.674,76.000 285.146,76.000 285.449 C 76.000 285.752,76.159 286.000,76.354 286.000 C 76.548 286.000,77.257 287.125,77.929 288.500 L 79.151 291.000 78.796 298.000 C 78.148 310.811,78.324 431.348,79.000 437.600 C 79.321 440.570,79.588 443.315,79.592 443.700 C 79.599 444.314,80.041 444.400,83.200 444.400 L 86.800 444.400 86.800 442.900 C 86.800 441.148,85.837 435.875,85.222 434.257 C 84.926 433.480,84.798 410.913,84.802 360.612 C 84.809 279.743,85.030 286.339,82.213 283.300 C 81.656 282.700,81.200 282.073,81.200 281.909 C 81.200 281.545,80.251 280.338,78.466 278.432 C 77.732 277.648,77.012 276.807,76.866 276.563 C 76.720 276.319,75.655 275.446,74.500 274.622 C 73.345 273.799,72.400 272.979,72.400 272.801 C 72.400 272.309,70.171 269.768,66.503 266.076 C 64.686 264.247,63.200 262.573,63.200 262.356 C 63.200 261.794,58.807 257.486,57.368 256.635 C 56.705 256.244,55.730 255.266,55.200 254.462 C 54.070 252.747,48.941 247.600,48.362 247.600 C 47.895 247.600,46.005 245.782,45.990 245.318 C 45.967 244.619,41.988 241.145,39.797 239.912 C 38.290 239.063,37.196 238.105,36.700 237.200 C 35.756 235.478,32.261 231.841,30.488 230.737 C 29.766 230.287,28.475 228.889,27.620 227.629 C 26.060 225.332,22.700 221.696,20.756 220.200 C 20.184 219.760,19.645 219.187,19.558 218.927 C 19.471 218.666,18.409 217.406,17.199 216.127 C 10.811 209.374,9.904 207.835,9.216 202.572 L 8.690 198.544 10.023 195.172 C 11.320 191.892,14.033 187.600,14.811 187.600 C 15.460 187.600,18.937 183.911,20.183 181.900 C 20.830 180.855,21.484 180.000,21.636 180.000 C 22.945 180.000,27.789 174.395,28.656 171.877 C 28.793 171.480,29.677 170.792,30.621 170.348 C 32.451 169.488,36.000 166.166,36.000 165.313 C 36.000 165.031,36.158 164.800,36.351 164.800 C 36.545 164.800,36.915 164.305,37.175 163.700 C 37.494 162.956,38.410 162.232,40.004 161.463 C 41.604 160.691,43.042 159.552,44.481 157.917 C 47.300 154.713,47.293 154.720,48.634 153.800 C 49.275 153.360,51.007 151.740,52.482 150.200 C 53.957 148.660,55.307 147.273,55.482 147.117 C 59.221 143.789,68.505 133.948,69.197 132.580 C 69.526 131.931,70.156 131.084,70.597 130.698 C 71.039 130.311,71.850 129.577,72.400 129.066 C 72.950 128.555,74.087 127.626,74.926 127.001 C 75.766 126.376,76.796 125.193,77.215 124.371 C 77.999 122.834,80.036 120.925,81.926 119.957 C 82.517 119.655,84.047 118.415,85.327 117.203 C 86.606 115.992,87.866 114.927,88.127 114.837 C 88.387 114.748,88.870 114.367,89.201 113.990 C 90.828 112.137,97.600 112.290,97.600 114.180 C 97.600 114.899,101.221 118.201,103.441 119.505 C 104.730 120.263,105.953 121.491,107.131 123.212 C 109.123 126.123,109.978 126.959,112.054 128.024 C 113.482 128.756,115.375 130.830,116.405 132.792 C 116.692 133.337,117.123 133.971,117.363 134.200 C 118.459 135.245,121.511 137.600,121.770 137.600 C 122.209 137.600,123.200 138.689,123.200 139.171 C 123.200 139.407,123.368 139.600,123.573 139.600 C 123.778 139.600,124.069 139.988,124.219 140.461 C 124.494 141.325,127.381 144.400,127.919 144.400 C 128.406 144.400,132.732 148.757,132.981 149.499 C 133.111 149.885,133.964 150.830,134.876 151.600 C 136.906 153.314,140.121 156.487,142.000 158.633 C 142.770 159.512,144.120 160.745,145.000 161.373 C 145.880 162.002,147.410 163.497,148.400 164.696 C 151.240 168.136,151.479 168.400,151.746 168.400 C 152.617 168.400,156.216 171.630,157.880 173.905 C 158.964 175.387,160.380 176.870,161.026 177.200 C 162.421 177.913,164.800 179.981,164.800 180.481 C 164.800 181.849,168.702 185.876,171.284 187.173 C 172.329 187.699,174.000 190.541,174.000 191.796 C 174.000 192.128,174.180 192.400,174.400 192.400 C 174.620 192.400,174.800 192.602,174.800 192.850 C 174.800 193.097,175.509 194.360,176.375 195.657 L 177.950 198.016 177.610 200.708 C 177.090 204.820,176.605 206.267,174.920 208.733 C 174.068 209.980,173.117 211.505,172.806 212.122 C 172.270 213.187,170.731 214.710,167.471 217.400 C 166.672 218.060,166.012 218.780,166.005 219.000 C 165.999 219.220,165.365 220.063,164.597 220.873 C 163.828 221.684,163.200 222.461,163.200 222.602 C 163.200 222.939,162.539 223.547,160.600 224.993 C 159.720 225.650,158.552 226.730,158.004 227.393 C 156.388 229.351,153.915 231.746,152.200 233.016 C 150.286 234.433,149.600 235.058,149.600 235.389 C 149.600 235.655,146.530 238.699,143.322 241.613 C 142.225 242.609,140.834 244.170,140.232 245.081 C 139.629 245.991,138.430 247.203,137.568 247.774 C 136.706 248.344,136.000 248.989,136.000 249.206 C 136.000 249.423,135.814 249.600,135.587 249.600 C 134.773 249.600,131.849 252.986,131.336 254.520 C 131.204 254.917,129.997 255.987,128.653 256.900 C 125.600 258.973,124.215 260.475,123.117 262.900 C 122.644 263.945,122.062 264.800,121.823 264.800 C 120.075 264.800,114.000 270.805,114.000 272.534 C 114.000 272.935,113.250 273.540,112.100 274.068 C 111.055 274.547,109.899 275.223,109.531 275.570 C 109.163 275.916,108.443 276.588,107.931 277.063 C 107.419 277.538,106.468 278.978,105.819 280.263 C 105.169 281.548,103.886 283.450,102.967 284.489 C 100.518 287.260,100.659 283.038,100.406 361.400 L 100.171 434.200 99.089 438.000 C 98.494 440.090,98.006 442.385,98.004 443.100 L 98.000 444.400 102.519 444.400 L 107.039 444.400 107.729 435.700 C 108.606 424.631,108.770 306.658,107.922 296.290 C 107.500 291.126,107.516 290.243,108.050 289.290 C 108.386 288.691,108.895 287.390,109.182 286.400 C 110.657 281.310,112.082 279.211,115.006 277.824 C 116.575 277.079,118.800 274.955,118.800 274.202 C 118.800 273.398,121.287 270.772,122.760 270.020 C 124.601 269.081,126.584 267.087,127.231 265.524 C 127.863 264.001,129.735 262.136,131.784 260.990 C 133.294 260.145,135.914 257.133,135.973 256.172 C 136.005 255.667,137.844 254.000,138.370 254.000 C 138.570 254.000,138.793 253.849,138.867 253.664 C 138.940 253.479,139.874 252.714,140.943 251.964 C 142.049 251.188,143.318 249.824,143.888 248.800 C 144.439 247.810,145.131 246.861,145.425 246.691 C 145.720 246.521,146.194 246.149,146.480 245.865 C 146.766 245.580,147.540 245.002,148.200 244.581 C 149.704 243.621,151.948 241.159,153.013 239.300 C 153.461 238.519,154.409 237.568,155.122 237.186 C 157.711 235.797,159.235 234.568,160.306 233.002 C 162.066 230.432,163.698 228.769,165.232 227.985 C 166.719 227.225,168.195 225.545,169.357 223.287 C 170.025 221.992,172.256 219.600,172.797 219.600 C 172.950 219.600,173.599 219.150,174.238 218.600 C 174.877 218.051,175.491 217.601,175.602 217.600 C 175.714 217.600,176.061 217.015,176.373 216.300 C 176.686 215.585,177.540 214.125,178.271 213.055 C 179.002 211.985,179.600 210.990,179.600 210.842 C 179.600 210.695,180.386 210.343,181.347 210.059 C 185.010 208.977,186.800 205.616,186.800 199.815 C 186.800 195.888,184.195 192.400,181.262 192.400 C 180.170 192.400,178.637 190.456,177.055 187.064 C 175.825 184.427,175.508 184.073,173.066 182.601 C 170.760 181.211,170.304 180.735,169.584 178.960 C 168.744 176.891,166.945 174.889,164.400 173.192 C 162.611 171.999,161.990 171.351,160.849 169.491 C 160.340 168.662,159.272 167.492,158.475 166.891 C 157.678 166.291,156.730 165.510,156.368 165.155 C 156.007 164.801,155.149 164.179,154.462 163.773 C 153.775 163.367,152.948 162.487,152.623 161.818 C 151.950 160.427,150.975 159.422,146.900 155.918 C 145.305 154.547,144.000 153.194,144.000 152.912 C 144.000 152.631,143.820 152.400,143.600 152.400 C 143.380 152.400,143.200 152.207,143.200 151.971 C 143.200 151.736,142.943 151.286,142.629 150.971 C 142.314 150.657,141.864 150.400,141.629 150.400 C 141.393 150.400,141.200 150.220,141.200 150.000 C 141.200 149.780,140.970 149.600,140.689 149.600 C 140.408 149.600,139.838 149.195,139.424 148.700 C 136.169 144.815,132.904 141.497,131.838 140.991 C 131.138 140.659,130.272 139.892,129.915 139.287 C 129.558 138.682,128.710 137.606,128.033 136.897 C 127.355 136.188,126.800 135.492,126.800 135.350 C 126.800 134.912,124.668 133.231,123.270 132.567 C 122.498 132.199,121.463 131.152,120.800 130.067 C 119.168 127.397,116.795 124.892,115.400 124.369 C 112.867 123.420,112.404 123.018,111.333 120.842 C 110.031 118.196,108.358 116.497,105.720 115.143 C 104.347 114.438,103.520 113.650,102.816 112.378 C 100.441 108.085,94.970 106.393,88.600 107.981 M396.492 209.764 C 395.772 210.273,394.514 211.569,393.695 212.645 C 391.645 215.339,389.818 217.059,388.183 217.835 C 387.422 218.196,386.800 218.626,386.800 218.791 C 386.800 218.956,386.387 219.520,385.883 220.045 C 385.378 220.570,384.343 221.810,383.583 222.800 C 381.961 224.911,380.603 226.234,379.206 227.063 C 378.653 227.391,377.665 228.447,377.011 229.410 C 376.357 230.372,375.412 231.379,374.911 231.648 C 374.410 231.916,373.994 232.330,373.988 232.568 C 373.981 232.805,373.157 233.617,372.157 234.371 C 371.156 235.124,369.677 236.561,368.869 237.564 C 367.196 239.641,365.727 241.200,365.444 241.200 C 365.094 241.200,360.400 245.739,360.400 246.076 C 360.400 246.675,358.235 248.853,356.200 250.302 C 354.045 251.835,351.216 254.736,351.206 255.422 C 351.198 255.965,348.693 258.400,348.142 258.400 C 347.911 258.400,347.290 258.759,346.761 259.198 C 343.789 261.665,343.200 262.233,343.200 262.628 C 343.200 263.646,340.593 266.889,339.206 267.597 C 337.634 268.399,334.000 272.146,334.000 272.965 C 334.000 273.587,331.895 275.551,329.517 277.150 C 328.081 278.115,327.351 279.008,326.445 280.908 C 323.650 286.769,323.888 279.532,323.842 360.000 C 323.796 440.145,323.894 436.962,321.339 440.728 C 320.823 441.489,320.400 442.627,320.400 443.256 L 320.400 444.400 324.338 444.400 L 328.277 444.400 328.540 439.191 C 328.685 436.326,328.801 401.329,328.798 361.419 C 328.794 318.027,328.940 288.483,329.161 287.928 C 329.364 287.418,329.924 285.971,330.406 284.714 C 330.887 283.457,331.578 282.333,331.941 282.216 C 332.303 282.099,333.230 281.463,334.000 280.803 C 334.770 280.142,335.535 279.601,335.700 279.601 C 335.865 279.600,336.000 279.402,336.000 279.160 C 336.000 278.919,336.506 278.244,337.125 277.660 C 337.744 277.077,338.599 276.003,339.025 275.274 C 339.451 274.544,340.734 273.242,341.875 272.379 C 343.017 271.517,344.456 270.134,345.073 269.306 C 345.690 268.478,346.324 267.704,346.482 267.586 C 346.640 267.468,347.051 266.698,347.395 265.874 C 347.750 265.024,348.579 264.045,349.310 263.611 C 350.020 263.191,350.817 262.657,351.083 262.424 C 351.349 262.191,351.674 262.000,351.807 262.000 C 352.458 262.000,355.452 259.179,356.598 257.484 C 357.311 256.430,358.683 255.062,359.647 254.444 C 361.261 253.410,364.735 250.161,367.226 247.355 C 367.790 246.720,369.950 244.560,372.026 242.556 C 374.101 240.551,376.933 237.761,378.317 236.356 C 379.701 234.950,381.771 232.868,382.917 231.729 C 384.063 230.591,385.183 229.421,385.406 229.129 C 385.629 228.838,386.484 227.771,387.306 226.759 C 388.128 225.746,388.800 224.755,388.800 224.556 C 388.800 224.358,389.309 223.970,389.930 223.695 C 390.552 223.420,392.644 221.576,394.581 219.597 C 397.057 217.066,398.382 216.000,399.050 216.000 C 399.980 216.000,400.000 215.922,400.000 212.400 L 400.000 208.800 398.900 208.820 C 398.295 208.830,397.211 209.256,396.492 209.764 " stroke="none" fill="#dc9084" fill-rule="evenodd"></path></g></svg>